/vscmnt/brussel_pixiu_data/_data_brussel/112/vsc11236/PredSimResults/SUBJ04mtu3D/weighted-LRposFixed/expIG/worker_02.mot
version=1
nRows=4
nColumns=50
inDegrees=yes
endheader
                time	         pelvis_tilt	         pelvis_list	     pelvis_rotation	           pelvis_tx	           pelvis_ty	           pelvis_tz	       hip_flexion_r	     hip_adduction_r	      hip_rotation_r	        knee_angle_r	       ankle_angle_r	         mtp_angle_r	       hip_flexion_l	     hip_adduction_l	      hip_rotation_l	        knee_angle_l	       ankle_angle_l	         mtp_angle_l	    lumbar_extension	      lumbar_bending	     lumbar_rotation	 ercspn_r/activation	 intobl_r/activation	 extobl_r/activation	    abd_r/activation	    add_r/activation	hamstrings_r/activation	bifemsh_r/activation	glut_max_r/activation	iliopsoas_r/activation	rect_fem_r/activation	  vasti_r/activation	gastroc_r/activation	 soleus_r/activation	tib_ant_r/activation	 ercspn_l/activation	 intobl_l/activation	 extobl_l/activation	    abd_l/activation	    add_l/activation	hamstrings_l/activation	bifemsh_l/activation	glut_max_l/activation	iliopsoas_l/activation	rect_fem_l/activation	  vasti_l/activation	gastroc_l/activation	 soleus_l/activation	tib_ant_l/activation	
          0.00000000	         -5.41075471	         -4.81669056	         12.32657921	          0.00000000	          0.88444544	         -0.02168750	         24.49207423	          0.29150829	         -5.08284585	          2.28355885	          5.29473547	          0.21209938	         -8.24042780	         -4.34323786	         15.94579395	         -8.00388282	         12.63765838	         22.18476573	         -2.96584891	          1.66974739	         -0.91688744	          0.09456895	          0.15755989	          0.02146941	          0.02680273	          0.09490179	          0.02722309	          0.01000054	          0.00999999	          0.06063828	          0.01231883	          0.02025576	          0.01000000	          0.01000000	          0.26346564	          0.02658302	          0.00999999	          0.01000000	          0.09622823	          0.01000001	          0.01912808	          0.14356437	          0.07268600	          0.33795994	          0.01000003	          0.01000000	          0.30754202	          0.27471307	          0.01517789	
          0.01391920	         -5.53709903	         -4.70896475	         12.21680837	          0.01460536	          0.88254250	         -0.02060138	         24.15074090	          0.55934693	         -3.82938707	          1.72507763	          4.96222906	          0.21970248	         -8.48514123	         -4.21397676	         15.13469635	         -9.22068725	         12.47999052	         23.80535968	         -2.68530282	          1.95161516	         -1.17181235	          0.07676135	          0.15679628	          0.01742666	          0.02175570	          0.12249263	          0.02518632	          0.01000007	          0.01000027	          0.04921991	          0.01000047	          0.01644159	          0.01517823	          0.01518853	          0.26358483	          0.05223191	          0.00999999	          0.01000000	          0.07810817	          0.01673703	          0.01618126	          0.11653079	          0.06537130	          0.30729046	          0.01000002	          0.01000000	          0.28633430	          0.27178715	          0.01231985	
          0.02783840	         -5.64698592	         -4.59389577	         12.04083423	          0.02960274	          0.88078325	         -0.01941767	         23.68195463	          0.83416918	         -2.62109836	          1.11865295	          4.57885635	          0.21180948	         -8.67554905	         -4.05911817	         14.26638003	        -10.62303272	         12.20927282	         25.47657357	         -2.38705006	          2.24860752	         -1.42047729	          0.06606174	          0.16808736	          0.01414517	          0.02521703	          0.09942693	          0.02885418	          0.04460302	          0.01961889	          0.03995166	          0.01000001	          0.01334560	          0.01232013	          0.01232849	          0.29831482	          0.07177048	          0.00999999	          0.01000000	          0.06340018	          0.03171011	          0.01324700	          0.09458771	          0.05306980	          0.26873205	          0.01000005	          0.01000000	          0.26172208	          0.26194101	          0.00999999	
          0.04175761	         -5.74105063	         -4.47811717	         11.78794008	          0.04480446	          0.87937441	         -0.01812558	         23.10171017	          1.12685456	         -1.48309735	          0.71262514	          4.05411499	          0.19958785	         -8.75114937	         -3.87574034	         13.34993626	        -12.28346923	         11.76868079	         27.19115134	         -2.09011331	          2.56975288	         -1.66104506	          0.06961319	          0.15203588	          0.01148159	          0.04829698	          0.08070459	          0.02950773	          0.03620418	          0.03072715	          0.03242865	          0.01000002	          0.01083263	          0.01000022	          0.01000700	          0.32429100	          0.09615254	          0.00999999	          0.01000000	          0.05146174	          0.03258814	          0.01291311	          0.07677657	          0.04307661	          0.22519406	          0.01000019	          0.01000003	          0.22818032	          0.24447930	          0.00999999	
